<svg width="72" height="60" viewBox="0 0 72 60" fill="none" xmlns="http://www.w3.org/2000/svg">
<g opacity="0.7">
<path d="M48.0348 1.82961C42.3987 3.166 38.8774 10.0875 41.1204 15.4024C43.965 22.1214 52.9979 21.4584 56.5248 14.2888C57.2664 12.7663 57.3474 12.4205 57.3994 10.1374C57.4498 7.92879 57.3863 7.50525 56.8062 6.22574C56.0861 4.66992 54.8256 3.3004 53.2609 2.44536C52.1296 1.82367 49.4313 1.51385 48.0348 1.82961Z" fill="#F6A6BF"/>
<path d="M20.2537 1.61892C18.7553 2.13099 16.8627 3.90035 16.0209 5.5447C15.383 6.79643 15.3003 7.21664 15.2499 9.42528C15.1979 11.7084 15.263 12.0575 15.9344 13.6122C17.4397 17.0729 20.4581 19.3763 23.8402 19.6273C26.1272 19.8036 27.6737 19.3174 29.2899 17.9142C33.1195 14.5751 33.091 8.34238 29.2364 4.23217C27.4518 2.3293 25.716 1.49519 23.233 1.36408C21.943 1.285 20.9415 1.38631 20.2537 1.61892Z" fill="#F6A6BF"/>
<path d="M61.3428 18.8682C58.1324 19.6391 55.8007 21.4233 54.346 24.2951C53.4289 26.0371 53.3739 26.309 53.3264 28.3935C53.2839 30.2547 53.3678 30.8525 53.8091 31.8061C54.5054 33.3365 55.7183 34.6553 57.2581 35.5346C58.3651 36.1558 58.7775 36.2396 60.8481 36.2869C63.0405 36.3369 63.2609 36.2922 65.0102 35.4631C71.9833 32.146 73.1195 22.9356 67.0028 19.6924C65.2211 18.7331 63.1562 18.4378 61.3428 18.8682Z" fill="#F6A6BF"/>
<path d="M6.24407 18.529C4.32985 19.1061 2.68984 20.484 1.74551 22.3495C1.13315 23.5521 1.02439 24.0462 0.982514 25.8826C0.938374 27.8183 1.0041 28.1425 1.81708 29.8991C5.06675 37.0247 14.2788 38.1286 17.7372 31.8264C18.3467 30.7478 18.4294 30.3276 18.4769 28.243C18.4995 26.1827 18.4372 25.7096 17.8565 24.4549C16.5348 21.4949 13.7622 19.0978 10.8288 18.4101C9.05904 17.9973 7.98607 18.0225 6.24407 18.529Z" fill="#F6A6BF"/>
<path d="M24.572 31.3376C26.1309 28.1702 29.3594 25.5375 32.5947 24.7422C34.1634 24.3559 37.3562 24.3542 38.9068 24.762C42.3234 25.6344 45.6455 28.5159 47.0567 31.8255C47.8442 33.6311 47.868 33.6565 49.6503 34.591C53.7694 36.7209 56.563 41.4028 56.4572 46.0434C56.3208 52.0241 52.2324 57.0953 46.5254 58.3308C43.1457 59.0483 39.1682 58.1879 36.5095 56.1409L35.2881 55.1944L34.0248 56.0842C31.2269 58.0068 26.9939 58.7296 23.7739 57.7872C14.3794 55.0652 11.4298 43.3283 18.4119 36.4112C19.5591 35.2704 20.5499 34.573 21.8551 33.982C23.6288 33.1534 23.6787 33.1049 24.572 31.3376Z" fill="#F6A6BF"/>
</g>
</svg>
