<svg width="180" height="179" viewBox="0 0 180 179" fill="none" xmlns="http://www.w3.org/2000/svg">
<path d="M171.592 59.6139C169.507 58.1055 167.844 56.087 166.762 53.7516C165.68 51.4163 165.216 48.8424 165.415 46.2763C165.684 42.7097 164.674 39.1637 162.566 36.2742C160.458 33.3847 157.389 31.3406 153.911 30.5085C151.406 29.9123 149.097 28.6824 147.205 26.9367C145.313 25.1911 143.901 22.9883 143.105 20.5399C141.994 17.1353 139.705 14.2387 136.649 12.3714C133.593 10.504 129.972 9.78826 126.435 10.353C123.887 10.7598 121.278 10.505 118.857 9.61307C116.436 8.72115 114.285 7.22203 112.61 5.25955C110.28 2.53894 107.056 0.738724 103.518 0.182539C99.979 -0.373647 96.3581 0.350684 93.3059 2.22531C91.1137 3.57159 88.6131 4.33393 86.0427 4.43965C83.4723 4.54537 80.9176 3.99095 78.6222 2.82925C75.4308 1.19959 71.7616 0.765938 68.2782 1.60675C64.7949 2.44755 61.7275 4.50729 59.6309 7.41335C58.1203 9.49576 56.1011 11.1563 53.7662 12.2365C51.4313 13.3167 48.8585 13.7805 46.2934 13.5837C42.7226 13.3059 39.1699 14.3121 36.2752 16.4212C33.3804 18.5302 31.3337 21.6035 30.5037 25.0876C29.9101 27.5965 28.6814 29.9107 26.9358 31.808C25.1901 33.7053 22.986 35.122 20.5351 35.9221C17.1299 37.0344 14.2332 39.325 12.3659 42.382C10.4986 45.4391 9.78315 49.0621 10.3482 52.5995C10.7564 55.1473 10.5023 57.7572 9.61031 60.1784C8.71829 62.5996 7.21837 64.7506 5.25478 66.4245C2.53534 68.7555 0.736525 71.98 0.18168 75.5185C-0.373164 79.0569 0.352354 82.6773 2.22782 85.7287C3.57252 87.9109 4.33779 90.4003 4.45112 92.961C4.56445 95.5217 4.02209 98.069 2.87541 100.361C1.2511 103.556 0.818153 107.224 1.65427 110.708C2.49038 114.193 4.54082 117.265 7.43769 119.375C9.52217 120.883 11.1843 122.902 12.2647 125.238C13.3451 127.573 13.8077 130.147 13.608 132.712C13.333 136.283 14.3401 139.835 16.4486 142.731C18.5571 145.626 21.6287 147.675 25.1119 148.509C27.6164 149.102 29.9263 150.329 31.8198 152.072C33.7133 153.815 35.1268 156.016 35.9246 158.463C37.0354 161.868 39.3247 164.764 42.3805 166.632C45.4364 168.499 49.0583 169.215 52.5947 168.65C55.1424 168.243 57.752 168.498 60.1729 169.39C62.5938 170.282 64.7449 171.781 66.4198 173.743C68.7517 176.462 71.9767 178.259 75.5151 178.813C79.0535 179.366 82.6733 178.639 85.7239 176.763C87.0737 175.933 88.5476 175.324 90.0897 174.959C93.5702 174.117 97.2367 174.545 100.429 176.166C103.623 177.788 107.291 178.216 110.772 177.375C114.254 176.533 117.32 174.476 119.421 171.575C120.931 169.493 122.951 167.832 125.285 166.752C127.62 165.672 130.193 165.208 132.758 165.405C136.33 165.686 139.884 164.681 142.779 162.571C145.675 160.461 147.721 157.386 148.548 153.901C149.147 151.398 150.378 149.09 152.123 147.198C153.868 145.306 156.07 143.894 158.517 143.095C161.919 141.979 164.813 139.688 166.68 136.632C168.547 133.576 169.264 129.955 168.703 126.418C168.299 123.876 168.555 121.272 169.447 118.858C170.339 116.443 171.837 114.298 173.797 112.629C176.517 110.299 178.318 107.075 178.874 103.537C179.43 99.9983 178.706 96.3775 176.831 93.3252C175.483 91.1332 174.721 88.6316 174.618 86.0604C174.515 83.4892 175.074 80.9345 176.242 78.6415C177.861 75.4362 178.283 71.7578 177.43 68.2692C176.578 64.7807 174.507 61.7112 171.592 59.6139ZM107.422 163.586C92.7698 167.124 77.3974 166.237 63.249 161.038C49.1005 155.84 36.8114 146.562 27.9355 134.379C19.0597 122.196 13.9959 107.655 13.3844 92.5939C12.7729 77.533 16.6412 62.629 24.5001 49.7665C32.359 36.9041 43.8556 26.6609 57.536 20.3323C71.2165 14.0037 86.4663 11.8739 101.357 14.2123C116.248 16.5507 130.111 23.2521 141.193 33.4693C152.275 43.6865 160.079 56.9604 163.617 71.6126C168.338 91.2595 165.072 111.977 154.537 129.219C144.002 146.461 127.058 158.821 107.422 163.586Z" fill="#F6A6BF"/>
<circle cx="89.4996" cy="89.4991" r="71.3082" fill="#F6A6BF"/>
<path d="M43.9712 108.934L40.0545 109.696L41.1979 115.577L39.48 115.911L38.0535 108.573L43.6881 107.478L43.9712 108.934ZM47.6571 106.62C48.7382 106.41 49.6135 106.511 50.2831 106.923C50.96 107.324 51.4 108.046 51.603 109.091L52.4391 113.392L50.8175 113.708L50.6439 112.814C50.4955 113.176 50.2412 113.482 49.8811 113.733C49.5283 113.972 49.0771 114.146 48.5274 114.253C47.9777 114.359 47.4789 114.361 47.031 114.258C46.5813 114.146 46.2099 113.947 45.9167 113.662C45.6309 113.366 45.4471 113.007 45.3652 112.585C45.237 111.926 45.3773 111.352 45.7863 110.863C46.2027 110.364 46.9377 110.012 47.9913 109.807L49.8878 109.439L49.8665 109.329C49.7667 108.816 49.5344 108.452 49.1695 108.238C48.8137 108.021 48.3335 107.972 47.7288 108.09C47.3165 108.17 46.9213 108.313 46.5431 108.52C46.1741 108.725 45.8744 108.968 45.6441 109.251L44.7276 108.131C45.0554 107.763 45.4744 107.449 45.9847 107.188C46.495 106.927 47.0524 106.738 47.6571 106.62ZM48.6416 112.933C49.0722 112.849 49.4337 112.679 49.7262 112.422C50.026 112.155 50.209 111.824 50.2752 111.431L50.1096 110.579L48.3367 110.924C47.3473 111.116 46.9157 111.538 47.0422 112.188C47.1027 112.5 47.2745 112.723 47.5575 112.858C47.8405 112.993 48.2019 113.018 48.6416 112.933ZM57.1902 104.767C57.9048 104.628 58.5719 104.66 59.1913 104.863C59.8199 105.064 60.3497 105.418 60.7808 105.924C61.2119 106.429 61.4995 107.053 61.6438 107.795C61.788 108.537 61.7559 109.228 61.5475 109.868C61.3372 110.498 60.9783 111.024 60.4708 111.446C59.9725 111.866 59.3661 112.146 58.6514 112.285C57.6619 112.477 56.8145 112.299 56.1091 111.752L56.8009 115.311L55.0831 115.645L53.1384 105.641L54.7738 105.323L54.9608 106.285C55.1771 105.881 55.4745 105.553 55.8529 105.298C56.2406 105.042 56.6863 104.865 57.1902 104.767ZM58.1732 110.852C58.8054 110.729 59.282 110.417 59.6033 109.918C59.9336 109.416 60.032 108.822 59.8984 108.134C59.7649 107.447 59.451 106.933 58.9568 106.592C58.4717 106.249 57.9131 106.139 57.281 106.262C56.8687 106.342 56.5163 106.51 56.2239 106.766C55.9297 107.014 55.7202 107.33 55.5955 107.716C55.4708 108.101 55.4529 108.523 55.542 108.981C55.631 109.439 55.8056 109.824 56.0657 110.135C56.3257 110.445 56.6394 110.665 57.0066 110.793C57.372 110.912 57.7609 110.932 58.1732 110.852ZM65.2651 103.198C66.3462 102.988 67.2215 103.088 67.891 103.5C68.568 103.901 69.0079 104.624 69.2109 105.668L70.0471 109.97L68.4254 110.285L68.2518 109.392C68.1034 109.753 67.8491 110.059 67.489 110.31C67.1363 110.55 66.685 110.723 66.1353 110.83C65.5856 110.937 65.0868 110.939 64.6389 110.836C64.1892 110.723 63.8178 110.525 63.5247 110.239C63.2389 109.943 63.055 109.584 62.9731 109.163C62.8449 108.503 62.9853 107.929 63.3943 107.441C63.8107 106.941 64.5457 106.589 65.5993 106.385L67.4958 106.016L67.4744 105.906C67.3747 105.393 67.1423 105.029 66.7774 104.815C66.4216 104.599 65.9414 104.55 65.3367 104.667C64.9245 104.747 64.5292 104.891 64.151 105.097C63.782 105.302 63.4823 105.546 63.252 105.828L62.3355 104.709C62.6633 104.341 63.0824 104.026 63.5926 103.765C64.1029 103.505 64.6604 103.315 65.2651 103.198ZM66.2496 109.51C66.6802 109.426 67.0417 109.256 67.3341 109C67.6339 108.732 67.8169 108.402 67.8831 108.009L67.7175 107.157L65.9447 107.501C64.9552 107.694 64.5237 108.115 64.6501 108.765C64.7107 109.077 64.8824 109.3 65.1654 109.435C65.4484 109.571 65.8098 109.595 66.2496 109.51ZM70.7463 102.218L72.4642 101.884L73.0438 104.866L76.7406 104.148L76.161 101.165L77.8788 100.831L79.3053 108.17L77.5875 108.504L77.0238 105.604L73.327 106.323L73.8907 109.223L72.1728 109.557L70.7463 102.218ZM86.2774 100.711L83.7075 101.21L84.8508 107.092L83.133 107.426L81.9897 101.544L79.406 102.046L79.1229 100.59L85.9943 99.254L86.2774 100.711ZM87.2403 99.0118L88.9582 98.6779L89.8985 103.515L93.0123 97.8898L94.579 97.5853L96.0055 104.924L94.2876 105.258L93.3473 100.42L90.2472 106.043L88.6668 106.35L87.2403 99.0118ZM100.942 96.263C101.656 96.1241 102.323 96.156 102.943 96.3589C103.571 96.56 104.101 96.9134 104.532 97.4191C104.963 97.9248 105.251 98.5487 105.395 99.2908C105.539 100.033 105.507 100.724 105.299 101.363C105.089 101.994 104.73 102.52 104.222 102.942C103.724 103.362 103.117 103.641 102.403 103.78C101.413 103.973 100.566 103.795 99.8605 103.248L100.552 106.807L98.8345 107.141L96.8898 97.1361L98.5252 96.8182L98.7122 97.7802C98.9285 97.3769 99.2259 97.0481 99.6044 96.7939C99.992 96.5379 100.438 96.3609 100.942 96.263ZM101.925 102.347C102.557 102.224 103.033 101.913 103.355 101.413C103.685 100.912 103.783 100.317 103.65 99.6301C103.516 98.9429 103.202 98.4287 102.708 98.0874C102.223 97.7443 101.665 97.6342 101.032 97.7571C100.62 97.8372 100.268 98.0056 99.9753 98.2621C99.6811 98.5094 99.4717 98.8259 99.3469 99.2114C99.2222 99.597 99.2044 100.019 99.2934 100.477C99.3825 100.935 99.557 101.319 99.8171 101.63C100.077 101.941 100.391 102.16 100.758 102.289C101.123 102.408 101.512 102.427 101.925 102.347ZM111.108 102.088C110.366 102.232 109.666 102.202 109.008 101.997C108.35 101.792 107.796 101.439 107.347 100.937C106.905 100.424 106.613 99.8052 106.473 99.0814C106.332 98.3576 106.371 97.6796 106.591 97.0475C106.819 96.4135 107.2 95.8784 107.733 95.4419C108.267 95.0055 108.904 94.7152 109.646 94.5709C110.398 94.4249 111.102 94.4543 111.76 94.6592C112.418 94.8642 112.967 95.2186 113.407 95.7225C113.857 96.2246 114.152 96.8376 114.292 97.5614C114.433 98.2852 114.39 98.9686 114.163 99.6117C113.944 100.244 113.568 100.778 113.034 101.215C112.501 101.651 111.859 101.942 111.108 102.088ZM110.822 100.618C111.454 100.495 111.935 100.183 112.266 99.6811C112.596 99.1795 112.694 98.5851 112.561 97.898C112.427 97.2108 112.113 96.6966 111.619 96.3553C111.125 96.014 110.562 95.9048 109.93 96.0277C109.297 96.1505 108.816 96.4628 108.486 96.9644C108.165 97.4642 108.071 98.0576 108.204 98.7448C108.338 99.4319 108.647 99.947 109.132 100.29C109.626 100.631 110.19 100.741 110.822 100.618ZM121.278 96.0465C122.239 96.1451 122.806 96.6433 122.981 97.5412C123.109 98.2008 122.961 98.7574 122.535 99.2109C122.11 99.6643 121.412 99.9855 120.441 100.174L116.703 100.901L115.276 93.5622L118.863 92.865C119.761 92.6905 120.494 92.7191 121.062 92.951C121.63 93.1829 121.973 93.6012 122.09 94.2058C122.163 94.5815 122.126 94.9263 121.977 95.2404C121.839 95.5526 121.605 95.8213 121.278 96.0465ZM117.507 96.3089L119.308 95.959C120.196 95.7863 120.581 95.393 120.462 94.7791C120.346 94.1836 119.844 93.9722 118.955 94.145L117.155 94.4949L117.507 96.3089ZM120.06 98.9504C121.004 98.7669 121.416 98.3683 121.297 97.7544C121.234 97.4338 121.078 97.2169 120.828 97.1039C120.576 96.9818 120.216 96.9661 119.749 97.0569L117.729 97.4496L118.095 99.3324L120.06 98.9504ZM126.504 91.2942C127.585 91.0841 128.46 91.1849 129.13 91.5967C129.807 91.9976 130.247 92.7202 130.45 93.7647L131.286 98.0662L129.664 98.3814L129.49 97.4881C129.342 97.8497 129.088 98.1559 128.728 98.4065C128.375 98.6462 127.924 98.8195 127.374 98.9264C126.824 99.0332 126.325 99.0351 125.877 98.932C125.428 98.8198 125.056 98.621 124.763 98.3357C124.477 98.0394 124.294 97.6806 124.212 97.2591C124.083 96.5995 124.224 96.0255 124.633 95.5371C125.049 95.0378 125.784 94.6858 126.838 94.481L128.734 94.1124L128.713 94.0024C128.613 93.4893 128.381 93.1257 128.016 92.9114C127.66 92.6953 127.18 92.646 126.575 92.7635C126.163 92.8437 125.768 92.9871 125.39 93.1937C125.021 93.3985 124.721 93.6422 124.491 93.9247L123.574 92.805C123.902 92.437 124.321 92.1226 124.831 91.8618C125.341 91.6009 125.899 91.4118 126.504 91.2942ZM127.488 97.6063C127.919 97.5226 128.28 97.3525 128.573 97.096C128.873 96.8286 129.056 96.4982 129.122 96.1051L128.956 95.253L127.183 95.5976C126.194 95.7899 125.762 96.2114 125.889 96.8618C125.949 97.1733 126.121 97.3967 126.404 97.5318C126.687 97.667 127.048 97.6918 127.488 97.6063ZM131.985 90.3143L133.703 89.9804L134.282 92.9626L137.979 92.244L137.4 89.2618L139.117 88.9279L140.544 96.2666L138.826 96.6005L138.262 93.7008L134.566 94.4193L135.129 97.3191L133.411 97.653L131.985 90.3143ZM145.463 90.2046C146.397 90.0229 147.153 90.0948 147.73 90.42C148.306 90.7453 148.669 91.2928 148.819 92.0623C148.976 92.8686 148.822 93.545 148.358 94.0916C147.903 94.6365 147.175 95.0014 146.175 95.1863L142.846 95.8191L141.42 88.4804L143.137 88.1465L143.605 90.5515L145.463 90.2046ZM148.827 87.0406L150.545 86.7067L151.971 94.0453L150.253 94.3792L148.827 87.0406ZM145.778 93.9514C146.283 93.8626 146.648 93.6824 146.871 93.4109C147.094 93.1394 147.164 92.7929 147.082 92.3714C147.002 91.9592 146.815 91.6818 146.521 91.5392C146.227 91.3967 145.818 91.3716 145.294 91.4639L143.835 91.7334L144.318 94.2208L145.778 93.9514Z" fill="white"/>
<path d="M34.3664 82.8779L36.2363 92.4979L34.4772 92.8398L32.9011 84.7316L29.1081 85.4689L29.4932 87.8899C29.7091 89.2456 29.812 90.3618 29.8018 91.2385C29.7898 92.1061 29.6341 92.7971 29.3348 93.3117C29.0337 93.8171 28.5442 94.1357 27.8662 94.2675C27.628 94.3138 27.2938 94.3312 26.8637 94.3197L26.6856 92.7428C26.8118 92.7563 26.9528 92.7479 27.1085 92.7176C27.6674 92.609 27.9972 92.2025 28.0981 91.4984C28.2063 90.7833 28.1489 89.7057 27.9261 88.2658L27.2888 84.2537L34.3664 82.8779ZM44.0141 83.2845C44.7471 83.1421 45.4333 83.1751 46.0728 83.3835C46.7106 83.5828 47.2505 83.939 47.6925 84.4521C48.1327 84.956 48.4232 85.5699 48.5639 86.2937C48.7046 87.0175 48.6661 87.7 48.4485 88.3413C48.2291 88.9735 47.8619 89.506 47.3471 89.9388C46.8322 90.3717 46.2083 90.6594 45.4753 90.8018C44.834 90.9265 44.2236 90.9168 43.6441 90.7727C43.0629 90.6195 42.5537 90.3476 42.1165 89.9572C41.6775 89.5576 41.3497 89.0699 41.1332 88.494L39.8963 88.7344L40.468 91.6753L38.7502 92.0092L37.3237 84.6706L39.0415 84.3367L39.5945 87.1814L40.8588 86.9357C40.8566 86.3371 40.9868 85.7841 41.2494 85.2767C41.5103 84.7601 41.8787 84.3319 42.3547 83.9922C42.8288 83.6433 43.3819 83.4074 44.0141 83.2845ZM45.1922 89.3451C45.5953 89.2667 45.9394 89.1048 46.2244 88.8592C46.5077 88.6045 46.7071 88.2852 46.8227 87.9015C46.9365 87.5085 46.9488 87.083 46.8598 86.6249C46.7244 85.9286 46.4151 85.4135 45.9319 85.0796C45.456 84.7347 44.9111 84.6219 44.2973 84.7413C43.6834 84.8606 43.2205 85.1693 42.9085 85.6673C42.5946 86.1561 42.5054 86.7487 42.6407 87.445C42.7761 88.1413 43.0817 88.6619 43.5576 89.0068C44.0426 89.3499 44.5875 89.4626 45.1922 89.3451ZM53.5776 81.882C54.2739 81.7466 54.9171 81.7785 55.5073 81.9775C56.0957 82.1674 56.5881 82.4996 56.9846 82.9739C57.3902 83.4466 57.6598 84.0264 57.7934 84.7136C57.9305 85.419 57.8876 86.0787 57.6646 86.6925C57.4398 87.2972 57.0591 87.8086 56.5223 88.2267C55.9856 88.6448 55.337 88.9277 54.5766 89.0755C53.3031 89.3231 52.2362 89.0931 51.3761 88.3855C50.516 87.678 49.9318 86.5317 49.6237 84.9467C49.337 83.4716 49.426 82.2421 49.8908 81.258C50.3556 80.2739 51.2117 79.518 52.4593 78.9902L55.7259 77.5994L56.2725 79.0905L53.3032 80.3237C52.4502 80.6797 51.8465 81.1203 51.4922 81.6455C51.1379 82.1708 51.0016 82.8391 51.0832 83.6504C51.3365 83.1923 51.6762 82.8125 52.1025 82.511C52.527 82.2003 53.0187 81.9906 53.5776 81.882ZM54.348 87.6795C54.9802 87.5566 55.4495 87.2562 55.7559 86.7783C56.0697 86.2894 56.1652 85.7289 56.0423 85.0967C55.9194 84.4646 55.6236 83.9944 55.1548 83.6862C54.6952 83.3762 54.1494 83.2826 53.5172 83.4055C52.8759 83.5301 52.3956 83.8232 52.0765 84.2845C51.7573 84.7459 51.6592 85.2927 51.782 85.9249C51.9067 86.5662 52.2052 87.0501 52.6775 87.3767C53.159 87.7014 53.7158 87.8024 54.348 87.6795ZM63.4188 87.314C62.6767 87.4582 61.9767 87.4279 61.3188 87.223C60.661 87.0181 60.1074 86.6646 59.658 86.1624C59.2159 85.6493 58.9246 85.0309 58.7839 84.3071C58.6432 83.5833 58.6826 82.9054 58.902 82.2732C59.1306 81.6393 59.5114 81.1041 60.0446 80.6677C60.5778 80.2313 61.2155 79.9409 61.9576 79.7967C62.7088 79.6506 63.4134 79.6801 64.0713 79.885C64.7291 80.0899 65.2782 80.4443 65.7184 80.9482C66.1678 81.4504 66.4628 82.0633 66.6035 82.7871C66.7442 83.5109 66.7012 84.1944 66.4744 84.8374C66.255 85.4696 65.8787 86.0039 65.3455 86.4403C64.8123 86.8767 64.1701 87.1679 63.4188 87.314ZM63.133 85.8435C63.7651 85.7206 64.2464 85.4084 64.5768 84.9068C64.9071 84.4052 65.0055 83.8109 64.8719 83.1237C64.7384 82.4366 64.4245 81.9224 63.9303 81.5811C63.4361 81.2397 62.8729 81.1305 62.2407 81.2534C61.6086 81.3763 61.1273 81.6885 60.7969 82.1901C60.4757 82.6899 60.3819 83.2834 60.5155 83.9705C60.6491 84.6577 60.9584 85.1728 61.4434 85.5159C61.9376 85.8572 62.5008 85.9664 63.133 85.8435ZM73.5896 81.2723C74.5501 81.3708 75.1176 81.869 75.2921 82.7669C75.4203 83.4266 75.2718 83.9831 74.8465 84.4366C74.4212 84.8901 73.723 85.2112 72.7518 85.4L69.0138 86.1266L67.5873 78.7879L71.1742 78.0907C72.072 77.9162 72.805 77.9449 73.373 78.1768C73.941 78.4086 74.2838 78.8269 74.4013 79.4316C74.4743 79.8072 74.4368 80.1521 74.2886 80.4661C74.1497 80.7784 73.9167 81.0471 73.5896 81.2723ZM69.8184 81.5347L71.6187 81.1848C72.5074 81.012 72.8921 80.6187 72.7728 80.0049C72.657 79.4093 72.1548 79.198 71.2661 79.3707L69.4658 79.7206L69.8184 81.5347ZM72.3713 84.1761C73.315 83.9927 73.7272 83.594 73.6078 82.9802C73.5455 82.6595 73.3893 82.4427 73.1391 82.3297C72.8872 82.2075 72.5276 82.1918 72.0603 82.2827L70.0401 82.6753L70.4061 84.5581L72.3713 84.1761ZM80.2492 78.8368C81.1838 78.6552 81.9393 78.727 82.516 79.0523C83.1018 79.3758 83.4695 79.9223 83.6191 80.6919C83.7758 81.4982 83.6221 82.1746 83.1579 82.7212C82.6936 83.2678 81.9613 83.6336 80.9609 83.8186L77.5225 84.4727L76.096 77.134L77.8139 76.8001L78.2814 79.2051L80.2492 78.8368ZM80.5639 82.5836C81.0696 82.4948 81.4339 82.3147 81.6569 82.0431C81.8799 81.7716 81.9504 81.4251 81.8684 81.0037C81.7883 80.5914 81.6013 80.314 81.3073 80.1715C81.0134 80.0289 80.6044 80.0038 80.0804 80.0962L78.5111 80.387L78.9946 82.8744L80.5639 82.5836ZM87.9867 74.8227L89.7046 74.4888L90.6449 79.3262L93.7587 73.7007L95.3254 73.3962L96.7519 80.7348L95.034 81.0688L94.0937 76.2313L90.9937 81.8541L89.4132 82.1613L87.9867 74.8227ZM106.502 74.8748C106.985 74.914 107.379 75.0561 107.683 75.3012C107.995 75.5354 108.19 75.854 108.268 76.2571C108.356 76.7061 108.282 77.134 108.047 77.5409C107.811 77.9387 107.446 78.2854 106.952 78.5811C106.458 78.8768 105.872 79.0905 105.194 79.2223C104.626 79.3327 104.059 79.3763 103.493 79.3531C102.926 79.3208 102.398 79.2237 101.911 79.0618L102.157 77.6875C102.553 77.8196 102.987 77.897 103.457 77.9197C103.927 77.9424 104.387 77.9101 104.836 77.8228C105.413 77.7106 105.845 77.5363 106.132 77.2999C106.426 77.0526 106.543 76.7731 106.483 76.4616C106.427 76.1776 106.256 75.9827 105.969 75.8768C105.692 75.7691 105.324 75.7598 104.866 75.8489L103.437 76.1267L103.212 74.9723L104.504 74.7212C104.935 74.6375 105.255 74.4992 105.465 74.3063C105.683 74.1116 105.767 73.8814 105.715 73.6157C105.664 73.35 105.476 73.1678 105.153 73.069C104.829 72.9703 104.411 72.9708 103.898 73.0705C103.165 73.213 102.426 73.5421 101.68 74.0579L100.994 72.8791C101.869 72.2431 102.796 71.8299 103.777 71.6393C104.4 71.5182 104.975 71.4967 105.504 71.5746C106.031 71.6433 106.462 71.8067 106.797 72.0648C107.14 72.3119 107.35 72.6325 107.426 73.0264C107.496 73.3837 107.448 73.7258 107.284 74.0525C107.117 74.3701 106.857 74.6442 106.502 74.8748ZM111.763 70.1156C112.844 69.9054 113.719 70.0063 114.389 70.4181C115.065 70.8189 115.505 71.5416 115.708 72.586L116.545 76.8875L114.923 77.2028L114.749 76.3095C114.601 76.6711 114.347 76.9772 113.987 77.2279C113.634 77.4676 113.183 77.6409 112.633 77.7477C112.083 77.8546 111.584 77.8565 111.136 77.7534C110.687 77.6411 110.315 77.4423 110.022 77.157C109.736 76.8608 109.553 76.5019 109.471 76.0805C109.342 75.4208 109.483 74.8468 109.892 74.3585C110.308 73.8592 111.043 73.5071 112.097 73.3023L113.993 72.9337L113.972 72.8238C113.872 72.3107 113.64 71.947 113.275 71.7327C112.919 71.5166 112.439 71.4673 111.834 71.5849C111.422 71.665 111.027 71.8084 110.649 72.015C110.28 72.2199 109.98 72.4635 109.75 72.746L108.833 71.6263C109.161 71.2583 109.58 70.9439 110.09 70.6831C110.6 70.4223 111.158 70.2331 111.763 70.1156ZM112.747 76.4277C113.178 76.344 113.539 76.1739 113.832 75.9174C114.131 75.6499 114.314 75.3196 114.381 74.9264L114.215 74.0744L112.442 74.419C111.453 74.6113 111.021 75.0327 111.148 75.6832C111.208 75.9947 111.38 76.218 111.663 76.3532C111.946 76.4883 112.307 76.5132 112.747 76.4277ZM121.285 68.721C121.981 68.5856 122.624 68.6175 123.215 68.8165C123.803 69.0064 124.295 69.3386 124.692 69.813C125.098 70.2856 125.367 70.8655 125.501 71.5526C125.638 72.2581 125.595 72.9177 125.372 73.5315C125.147 74.1362 124.766 74.6476 124.23 75.0657C123.693 75.4838 123.044 75.7667 122.284 75.9145C121.01 76.1621 119.944 75.9321 119.083 75.2245C118.223 74.517 117.639 73.3707 117.331 71.7857C117.044 70.3107 117.133 69.0811 117.598 68.097C118.063 67.1129 118.919 66.357 120.167 65.8292L123.433 64.4384L123.98 65.9295L121.011 67.1627C120.158 67.5187 119.554 67.9593 119.2 68.4846C118.845 69.0098 118.709 69.6781 118.791 70.4894C119.044 70.0314 119.384 69.6516 119.81 69.35C120.234 69.0393 120.726 68.8296 121.285 68.721ZM122.055 74.5185C122.688 74.3956 123.157 74.0952 123.463 73.6173C123.777 73.1285 123.873 72.5679 123.75 71.9358C123.627 71.3036 123.331 70.8334 122.862 70.5252C122.403 70.2152 121.857 70.1216 121.225 70.2445C120.583 70.3692 120.103 70.6622 119.784 71.1236C119.465 71.5849 119.367 72.1317 119.489 72.7639C119.614 73.4052 119.913 73.8891 120.385 74.2157C120.866 74.5405 121.423 74.6414 122.055 74.5185ZM131.126 74.153C130.384 74.2973 129.684 74.2669 129.026 74.062C128.368 73.8571 127.815 73.5036 127.365 73.0014C126.923 72.4884 126.632 71.8699 126.491 71.1461C126.351 70.4224 126.39 69.7444 126.609 69.1122C126.838 68.4783 127.219 67.9431 127.752 67.5067C128.285 67.0703 128.923 66.78 129.665 66.6357C130.416 66.4897 131.121 66.5191 131.779 66.724C132.436 66.9289 132.986 67.2833 133.426 67.7873C133.875 68.2894 134.17 68.9024 134.311 69.6262C134.452 70.3499 134.409 71.0334 134.182 71.6765C133.962 72.3086 133.586 72.8429 133.053 73.2793C132.52 73.7157 131.877 74.007 131.126 74.153ZM130.84 72.6825C131.472 72.5596 131.954 72.2474 132.284 71.7458C132.614 71.2442 132.713 70.6499 132.579 69.9627C132.446 69.2756 132.132 68.7614 131.638 68.4201C131.143 68.0788 130.58 67.9696 129.948 68.0924C129.316 68.2153 128.835 68.5276 128.504 69.0291C128.183 69.5289 128.089 70.1224 128.223 70.8096C128.356 71.4967 128.666 72.0118 129.151 72.3549C129.645 72.6962 130.208 72.8054 130.84 72.6825ZM141.123 66.0059L138.553 66.5054L139.696 72.3874L137.978 72.7213L136.835 66.8394L134.251 67.3416L133.968 65.8848L140.839 64.5492L141.123 66.0059ZM144.804 63.6929C145.885 63.4828 146.761 63.5836 147.43 63.9954C148.107 64.3963 148.547 65.1189 148.75 66.1634L149.586 70.4649L147.965 70.7801L147.791 69.8868C147.643 70.2484 147.388 70.5546 147.028 70.8052C146.676 71.0449 146.224 71.2182 145.675 71.3251C145.125 71.4319 144.626 71.4338 144.178 71.3307C143.728 71.2184 143.357 71.0197 143.064 70.7344C142.778 70.4381 142.594 70.0793 142.512 69.6578C142.384 68.9982 142.525 68.4242 142.934 67.9358C143.35 67.4365 144.085 67.0845 145.139 66.8797L147.035 66.511L147.014 66.4011C146.914 65.888 146.682 65.5244 146.317 65.31C145.961 65.094 145.481 65.0447 144.876 65.1622C144.464 65.2424 144.068 65.3857 143.69 65.5924C143.321 65.7972 143.022 66.0409 142.791 66.3233L141.875 65.2036C142.203 64.8357 142.622 64.5213 143.132 64.2604C143.642 63.9996 144.2 63.8104 144.804 63.6929ZM145.789 70.005C146.219 69.9213 146.581 69.7512 146.873 69.4947C147.173 69.2273 147.356 68.8969 147.422 68.5037L147.257 67.6517L145.484 67.9963C144.494 68.1886 144.063 68.61 144.189 69.2605C144.25 69.572 144.422 69.7954 144.705 69.9305C144.988 70.0657 145.349 70.0905 145.789 70.005Z" fill="white"/>
<path d="M76.7347 34.4586L80.8166 40.9863L88.4597 39.1347L83.3393 45.0206L87.4212 51.5483L80.1747 48.6583L75.0543 54.5443L75.6962 46.8722L68.4497 43.9823L76.0929 42.1306L76.7347 34.4586Z" fill="white"/>
<path d="M104.74 122.058L104.16 129.735L111.414 132.772L103.801 134.479L103.221 142.156L99.0966 135.534L91.4842 137.241L96.5475 131.442L92.4228 124.82L99.6767 127.857L104.74 122.058Z" fill="white"/>
<path d="M97.5802 34.525L100.434 39.088L105.776 37.7937L102.197 41.9081L105.05 46.4711L99.9848 44.451L96.4056 48.5654L96.8542 43.2024L91.7888 41.1823L97.1315 39.888L97.5802 34.525Z" fill="white"/>
<path d="M58.2872 43.9843L61.1405 48.5473L66.4833 47.253L62.904 51.3674L65.7573 55.9304L60.6919 53.9102L57.1126 58.0246L57.5613 52.6617L52.4958 50.6415L57.8386 49.3472L58.2872 43.9843Z" fill="white"/>
<path d="M83.3591 128.9L82.9556 134.267L88.0271 136.388L82.7063 137.584L82.3028 142.95L79.4178 138.322L74.097 139.518L77.6348 135.462L74.7499 130.834L79.8213 132.956L83.3591 128.9Z" fill="white"/>
<path d="M122.558 119.342L122.155 124.708L127.226 126.829L121.905 128.025L121.502 133.391L118.617 128.763L113.296 129.959L116.834 125.903L113.949 121.275L119.021 123.397L122.558 119.342Z" fill="white"/>
</svg>
